<svg fill="#000000" height="200px" width="200px" version="1.1" id="Layer_1" xmlns="http://www.w3.org/2000/svg" xmlns:xlink="http://www.w3.org/1999/xlink" 
	 viewBox="0 0 460 460" xml:space="preserve">
<path d="M82.494,378.184l28.75-105.764c-18.096-29.454-27.748-63.521-27.748-99.143C83.496,81.53,164.3,0,272.746,0
	S462,81.53,462,173.277c0,91.748-80.804,173.28-189.254,173.28c-32.441,0-63.156-8.428-90.186-23.644L82.494,378.184z
	 M272.746,38.973c-80.01,0-145.154,56.158-145.154,134.304c0,38.973,17.455,74.74,46.843,100.485l-17.455,64.168l66.046-17.134
	c26.45,14.891,56.158,22.656,86.512,22.656c80.01,0,145.154-56.158,145.154-134.304S352.756,38.973,272.746,38.973z
	 M348.914,264.049c-2.967-1.483-17.455-8.428-20.103-9.416c-2.648-0.988-4.631-1.483-6.618,1.483
	c-1.987,2.967-7.609,9.416-9.416,11.403c-1.807,1.987-3.614,2.153-6.618,0.827c-3.004-1.326-12.668-4.631-24.13-14.891
	c-8.939-7.934-14.99-17.776-16.797-20.747c-1.807-2.967-0.166-4.631,1.326-6.119c1.326-1.326,2.967-3.46,4.45-5.267
	c1.483-1.807,1.987-2.967,2.967-4.954c0.988-1.987,0.494-3.614-0.166-5.101c-0.66-1.483-6.618-15.879-9.095-21.735
	c-2.477-5.856-4.954-5.101-6.618-5.101c-1.664,0-3.614-0.166-5.597-0.166c-1.987,0-5.267,0.66-7.934,3.299
	c-2.648,2.648-10.064,9.737-10.064,23.644c0,13.907,10.385,27.485,11.711,29.336c1.326,1.807,20.103,30.781,49.602,43.72
	C327.08,258.783,332.134,260.109,336.11,259.12c3.976-0.988,12.502-5.101,14.209-10.064
	C352.026,264.215,351.881,265.532,348.914,264.049z"/>
</svg>

